<?xml version="1.0" encoding="UTF-8" standalone="no"?>
<svg
   xmlns:dc="http://purl.org/dc/elements/1.1/"
   xmlns:cc="http://creativecommons.org/ns#"
   xmlns:rdf="http://www.w3.org/1999/02/22-rdf-syntax-ns#"
   xmlns:svg="http://www.w3.org/2000/svg"
   xmlns="http://www.w3.org/2000/svg"
   xmlns:xlink="http://www.w3.org/1999/xlink"
   xmlns:sodipodi="http://sodipodi.sourceforge.net/DTD/sodipodi-0.dtd"
   xmlns:inkscape="http://www.inkscape.org/namespaces/inkscape"
   id="Layer_2"
   data-name="Layer 2"
   viewBox="0 0 46.09 67.309998"
   version="1.1"
   sodipodi:docname="smlogo.svg"
   width="46.09"
   height="67.309998"
   inkscape:version="1.0.2-2 (e86c870879, 2021-01-15)">
  <metadata
     id="metadata57">
    <rdf:RDF>
      <cc:Work
         rdf:about="">
        <dc:format>image/svg+xml</dc:format>
        <dc:type
           rdf:resource="http://purl.org/dc/dcmitype/StillImage" />
        <dc:title></dc:title>
      </cc:Work>
    </rdf:RDF>
  </metadata>
  <sodipodi:namedview
     pagecolor="#ffffff"
     bordercolor="#666666"
     borderopacity="1"
     objecttolerance="10"
     gridtolerance="10"
     guidetolerance="10"
     inkscape:pageopacity="0"
     inkscape:pageshadow="2"
     inkscape:window-width="2560"
     inkscape:window-height="1369"
     id="namedview55"
     showgrid="false"
     inkscape:zoom="1.3025"
     inkscape:cx="-63.141173"
     inkscape:cy="93.209479"
     inkscape:window-x="-8"
     inkscape:window-y="-8"
     inkscape:window-maximized="1"
     inkscape:current-layer="Layer_1-2"
     inkscape:document-rotation="0" />
  <defs
     id="defs9">
    <style
       id="style2">
      .cls-1 {
        fill: url(#linear-gradient);
      }

      .cls-2 {
        fill: #303030;
      }

      .cls-3 {
        opacity: 0;
      }
    </style>
    <linearGradient
       id="linear-gradient"
       x1="371.64999"
       y1="259.59"
       x2="428.35001"
       y2="202.88"
       gradientUnits="userSpaceOnUse">
      <stop
         offset="0"
         stop-color="#8233ff"
         id="stop4" />
      <stop
         offset="1"
         stop-color="#33c8ee"
         id="stop6" />
    </linearGradient>
    <linearGradient
       inkscape:collect="always"
       xlink:href="#linear-gradient"
       id="linearGradient1486"
       gradientUnits="userSpaceOnUse"
       x1="371.64999"
       y1="259.59"
       x2="428.35001"
       y2="202.88" />
  </defs>
  <g
     id="Layer_1-2"
     data-name="Layer 1"
     transform="translate(-376.95,-197.59)">
    <rect
       class="cls-3"
       width="800"
       height="500"
       id="rect11"
       x="0"
       y="0" />
    <path
       class="cls-1"
       d="m 382.84,260.18 v -28.94 c 0,-9.46 7.7,-17.16 17.16,-17.16 4.12,0 8.13,1.49 11.21,4.08 v 4.8 c -2.63,-3.56 -6.79,-5.67 -11.21,-5.67 -7.69,0 -13.95,6.26 -13.95,13.95 v 28.94 z m -5.89,-1.95 v 6.67 h 3.21 v -6.67 z M 400,208.2 c -12.19,0 -22.31,9.54 -23.05,21.72 v 25.91 h 3.21 v -25.81 c 0.63,-10.44 9.34,-18.61 19.84,-18.61 4.03,0 7.9,1.21 11.21,3.51 v -3.74 c -3.44,-1.95 -7.31,-2.97 -11.21,-2.97 z m 23.04,-3.91 v -6.7 h -3.21 v 6.7 z m -3.21,2.4 v 25.78 c -0.63,10.44 -9.35,18.61 -19.84,18.61 -4.03,0 -7.9,-1.21 -11.21,-3.5 v 3.74 c 3.44,1.95 7.32,2.97 11.21,2.97 12.19,0 22.31,-9.54 23.05,-21.72 v -25.88 z m -19.84,41.71 c 9.46,0 17.16,-7.7 17.16,-17.16 V 202.3 c 0,0 -3.21,0 -3.21,0 v 28.94 c 0,7.69 -6.26,13.95 -13.95,13.95 -4.42,0 -8.58,-2.11 -11.21,-5.67 v 4.8 c 3.09,2.58 7.09,4.08 11.21,4.08 z"
       id="path13"
       style="fill:url(#linearGradient1486)" />
  </g>
</svg>
