<?xml version="1.0" encoding="UTF-8" standalone="no"?>
<svg
   xmlns:dc="http://purl.org/dc/elements/1.1/"
   xmlns:cc="http://creativecommons.org/ns#"
   xmlns:rdf="http://www.w3.org/1999/02/22-rdf-syntax-ns#"
   xmlns:svg="http://www.w3.org/2000/svg"
   xmlns="http://www.w3.org/2000/svg"
   xmlns:xlink="http://www.w3.org/1999/xlink"
   xmlns:sodipodi="http://sodipodi.sourceforge.net/DTD/sodipodi-0.dtd"
   xmlns:inkscape="http://www.inkscape.org/namespaces/inkscape"
   id="Layer_2"
   data-name="Layer 2"
   viewBox="0 0 116.15 105.85576"
   version="1.1"
   sodipodi:docname="Pinary Development.edit.svg"
   width="116.15"
   height="105.85576"
   inkscape:version="1.0.2-2 (e86c870879, 2021-01-15)">
  <metadata
     id="metadata57">
    <rdf:RDF>
      <cc:Work
         rdf:about="">
        <dc:format>image/svg+xml</dc:format>
        <dc:type
           rdf:resource="http://purl.org/dc/dcmitype/StillImage" />
        <dc:title></dc:title>
      </cc:Work>
    </rdf:RDF>
  </metadata>
  <sodipodi:namedview
     pagecolor="#ffffff"
     bordercolor="#666666"
     borderopacity="1"
     objecttolerance="10"
     gridtolerance="10"
     guidetolerance="10"
     inkscape:pageopacity="0"
     inkscape:pageshadow="2"
     inkscape:window-width="1920"
     inkscape:window-height="1009"
     id="namedview55"
     showgrid="false"
     inkscape:zoom="1.3025"
     inkscape:cx="-28.111173"
     inkscape:cy="93.209479"
     inkscape:window-x="2552"
     inkscape:window-y="156"
     inkscape:window-maximized="1"
     inkscape:current-layer="Layer_1-2" />
  <defs
     id="defs9">
    <style
       id="style2">
      .cls-1 {
        fill: url(#linear-gradient);
      }

      .cls-2 {
        fill: #303030;
      }

      .cls-3 {
        opacity: 0;
      }
    </style>
    <linearGradient
       id="linear-gradient"
       x1="371.64999"
       y1="259.59"
       x2="428.35001"
       y2="202.88"
       gradientUnits="userSpaceOnUse">
      <stop
         offset="0"
         stop-color="#8233ff"
         id="stop4" />
      <stop
         offset="1"
         stop-color="#33c8ee"
         id="stop6" />
    </linearGradient>
    <linearGradient
       inkscape:collect="always"
       xlink:href="#linear-gradient"
       id="linearGradient1486"
       gradientUnits="userSpaceOnUse"
       x1="371.64999"
       y1="259.59"
       x2="428.35001"
       y2="202.88" />
  </defs>
  <g
     id="Layer_1-2"
     data-name="Layer 1"
     transform="translate(-341.92,-197.59)">
    <rect
       class="cls-3"
       width="800"
       height="500"
       id="rect11"
       x="0"
       y="0" />
    <path
       class="cls-1"
       d="m 382.84,260.18 v -28.94 c 0,-9.46 7.7,-17.16 17.16,-17.16 4.12,0 8.13,1.49 11.21,4.08 v 4.8 c -2.63,-3.56 -6.79,-5.67 -11.21,-5.67 -7.69,0 -13.95,6.26 -13.95,13.95 v 28.94 z m -5.89,-1.95 v 6.67 h 3.21 v -6.67 z M 400,208.2 c -12.19,0 -22.31,9.54 -23.05,21.72 v 25.91 h 3.21 v -25.81 c 0.63,-10.44 9.34,-18.61 19.84,-18.61 4.03,0 7.9,1.21 11.21,3.51 v -3.74 c -3.44,-1.95 -7.31,-2.97 -11.21,-2.97 z m 23.04,-3.91 v -6.7 h -3.21 v 6.7 z m -3.21,2.4 v 25.78 c -0.63,10.44 -9.35,18.61 -19.84,18.61 -4.03,0 -7.9,-1.21 -11.21,-3.5 v 3.74 c 3.44,1.95 7.32,2.97 11.21,2.97 12.19,0 22.31,-9.54 23.05,-21.72 v -25.88 z m -19.84,41.71 c 9.46,0 17.16,-7.7 17.16,-17.16 V 202.3 c 0,0 -3.21,0 -3.21,0 v 28.94 c 0,7.69 -6.26,13.95 -13.95,13.95 -4.42,0 -8.58,-2.11 -11.21,-5.67 v 4.8 c 3.09,2.58 7.09,4.08 11.21,4.08 z"
       id="path13"
       style="fill:url(#linearGradient1486)" />
    <g
       id="g27">
      <path
         class="cls-2"
         d="m 353.14,282.88 c 0,2.83 -2.13,4.59 -5.53,4.59 h -2.17 v 3.25 h -3.52 v -12.44 h 5.69 c 3.4,0 5.53,1.76 5.53,4.61 z m -3.56,0 c 0,-1.16 -0.73,-1.83 -2.19,-1.83 h -1.96 v 3.65 h 1.96 c 1.46,0 2.19,-0.68 2.19,-1.81 z"
         id="path15" />
      <path
         class="cls-2"
         d="m 363.75,278.27 h 3.52 v 12.44 h -3.52 z"
         id="path17" />
      <path
         class="cls-2"
         d="m 390.51,278.27 v 12.44 h -2.9 l -5.49,-6.63 v 6.63 h -3.45 v -12.44 h 2.9 l 5.49,6.63 v -6.63 z"
         id="path19" />
      <path
         class="cls-2"
         d="m 410.23,288.3 h -5.26 l -0.98,2.42 h -3.59 l 5.49,-12.44 h 3.47 l 5.51,12.44 h -3.66 z m -1.03,-2.59 -1.6,-3.98 -1.6,3.98 z"
         id="path21" />
      <path
         class="cls-2"
         d="m 430.21,287.41 h -1.92 v 3.31 h -3.52 v -12.44 h 5.69 c 3.4,0 5.53,1.76 5.53,4.61 0,1.83 -0.89,3.18 -2.44,3.93 l 2.68,3.91 h -3.77 l -2.26,-3.31 z m 0.04,-6.36 h -1.96 v 3.65 h 1.96 c 1.46,0 2.19,-0.68 2.19,-1.81 0,-1.13 -0.73,-1.83 -2.19,-1.83 z"
         id="path23" />
      <path
         class="cls-2"
         d="m 453.31,286.25 v 4.46 h -3.52 v -4.52 l -4.75,-7.93 h 3.72 l 2.95,4.94 2.95,-4.94 h 3.41 l -4.76,7.98 z"
         id="path25" />
    </g>
    <g
       id="g51"
       transform="matrix(1.5714505,0,0,1.5714505,-228.58305,-171.7923)">
      <path
         d="m 366.09,299.09 c 0.25,0.15 0.45,0.35 0.58,0.61 0.14,0.26 0.21,0.57 0.21,0.92 0,0.35 -0.07,0.65 -0.21,0.92 -0.14,0.26 -0.33,0.47 -0.58,0.61 -0.25,0.14 -0.54,0.22 -0.87,0.22 h -1.13 c -0.1,0 -0.18,-0.03 -0.25,-0.1 -0.07,-0.07 -0.11,-0.14 -0.11,-0.23 v -2.85 c 0,-0.09 0.04,-0.16 0.11,-0.22 0.07,-0.06 0.16,-0.09 0.25,-0.09 h 1.13 c 0.33,0 0.62,0.07 0.87,0.22 z m -0.33,2.58 c 0.16,-0.1 0.28,-0.24 0.36,-0.42 0.09,-0.18 0.13,-0.39 0.13,-0.63 0,-0.24 -0.04,-0.45 -0.13,-0.63 -0.09,-0.18 -0.21,-0.33 -0.36,-0.43 -0.15,-0.1 -0.34,-0.15 -0.54,-0.15 h -0.87 v 2.41 h 0.87 c 0.2,0 0.38,-0.05 0.54,-0.15 z"
         id="path29" />
      <path
         d="m 373.57,301.91 c 0.06,0.06 0.08,0.13 0.08,0.2 0,0.07 -0.03,0.14 -0.08,0.19 -0.05,0.05 -0.13,0.08 -0.22,0.08 h -2.18 c -0.11,0 -0.19,-0.03 -0.26,-0.1 -0.07,-0.06 -0.1,-0.14 -0.1,-0.23 v -2.84 c 0,-0.09 0.03,-0.17 0.1,-0.23 0.07,-0.06 0.15,-0.09 0.26,-0.09 h 2.18 c 0.1,0 0.17,0.03 0.22,0.08 0.05,0.05 0.07,0.11 0.07,0.19 0,0.07 -0.03,0.13 -0.08,0.19 -0.05,0.06 -0.12,0.09 -0.21,0.09 h -1.91 v 0.96 h 1.82 c 0.09,0 0.16,0.03 0.21,0.08 0.05,0.05 0.08,0.12 0.08,0.19 0,0.07 -0.03,0.13 -0.07,0.19 -0.05,0.05 -0.12,0.08 -0.21,0.08 h -1.82 v 0.91 h 1.91 c 0.09,0 0.16,0.03 0.22,0.09 z"
         id="path31" />
      <path
         d="m 377.24,299.16 c 0,-0.08 0.03,-0.15 0.1,-0.21 0.07,-0.06 0.15,-0.09 0.23,-0.09 0.07,0 0.13,0.01 0.17,0.04 0.05,0.02 0.08,0.07 0.11,0.13 l 1.21,2.31 1.18,-2.3 c 0.03,-0.06 0.07,-0.1 0.12,-0.13 0.05,-0.03 0.1,-0.05 0.16,-0.05 0.08,0 0.16,0.03 0.23,0.08 0.07,0.05 0.1,0.12 0.1,0.21 0,0.05 -0.01,0.1 -0.04,0.15 l -1.47,2.89 c -0.03,0.05 -0.07,0.09 -0.12,0.12 -0.05,0.03 -0.11,0.05 -0.16,0.05 -0.06,0 -0.12,-0.01 -0.17,-0.04 -0.05,-0.03 -0.09,-0.07 -0.12,-0.14 l -1.5,-2.91 c 0,0 -0.03,-0.08 -0.03,-0.12 z"
         id="path33" />
      <path
         d="m 387.41,301.91 c 0.06,0.06 0.08,0.13 0.08,0.2 0,0.07 -0.03,0.14 -0.08,0.19 -0.05,0.05 -0.13,0.08 -0.22,0.08 h -2.18 c -0.11,0 -0.19,-0.03 -0.26,-0.1 -0.07,-0.06 -0.1,-0.14 -0.1,-0.23 v -2.84 c 0,-0.09 0.03,-0.17 0.1,-0.23 0.07,-0.06 0.15,-0.09 0.26,-0.09 h 2.18 c 0.1,0 0.17,0.03 0.22,0.08 0.05,0.05 0.07,0.11 0.07,0.19 0,0.07 -0.03,0.13 -0.08,0.19 -0.05,0.06 -0.12,0.09 -0.21,0.09 h -1.91 v 0.96 h 1.82 c 0.09,0 0.16,0.03 0.21,0.08 0.05,0.05 0.08,0.12 0.08,0.19 0,0.07 -0.03,0.13 -0.07,0.19 -0.05,0.05 -0.12,0.08 -0.21,0.08 h -1.82 v 0.91 h 1.91 c 0.09,0 0.16,0.03 0.22,0.09 z"
         id="path35" />
      <path
         d="m 391.52,302.29 c -0.05,-0.05 -0.08,-0.12 -0.08,-0.22 v -2.92 c 0,-0.09 0.03,-0.16 0.1,-0.21 0.06,-0.05 0.14,-0.07 0.23,-0.07 0.09,0 0.16,0.02 0.22,0.07 0.06,0.05 0.1,0.12 0.1,0.21 v 2.67 h 1.8 c 0.1,0 0.18,0.03 0.24,0.08 0.06,0.05 0.09,0.12 0.09,0.19 0,0.08 -0.03,0.14 -0.09,0.19 -0.06,0.05 -0.14,0.08 -0.24,0.08 h -2.11 c -0.11,0 -0.2,-0.02 -0.25,-0.07 z"
         id="path37" />
      <path
         d="m 400.84,301.57 c -0.15,0.27 -0.36,0.48 -0.63,0.63 -0.27,0.15 -0.58,0.22 -0.94,0.22 -0.36,0 -0.67,-0.07 -0.94,-0.22 -0.27,-0.15 -0.48,-0.36 -0.63,-0.63 -0.15,-0.27 -0.22,-0.59 -0.22,-0.94 0,-0.35 0.07,-0.67 0.22,-0.94 0.15,-0.27 0.36,-0.49 0.63,-0.64 0.27,-0.15 0.59,-0.22 0.94,-0.22 0.35,0 0.66,0.07 0.93,0.22 0.27,0.15 0.48,0.36 0.63,0.63 0.15,0.27 0.22,0.59 0.22,0.95 0,0.36 -0.07,0.67 -0.22,0.94 z m -0.96,0.14 c 0.17,-0.1 0.31,-0.25 0.4,-0.44 0.09,-0.19 0.14,-0.4 0.14,-0.65 0,-0.25 -0.05,-0.46 -0.14,-0.65 -0.1,-0.19 -0.23,-0.33 -0.4,-0.44 -0.17,-0.1 -0.37,-0.16 -0.6,-0.16 -0.23,0 -0.43,0.05 -0.6,0.16 -0.18,0.1 -0.31,0.25 -0.41,0.44 -0.1,0.19 -0.14,0.41 -0.14,0.65 0,0.24 0.05,0.46 0.14,0.65 0.09,0.19 0.23,0.33 0.41,0.44 0.18,0.1 0.38,0.16 0.6,0.16 0.22,0 0.43,-0.05 0.6,-0.16 z"
         id="path39" />
      <path
         d="m 405.69,302.09 c 0,0.09 -0.03,0.16 -0.1,0.21 -0.07,0.05 -0.14,0.07 -0.22,0.07 -0.08,0 -0.16,-0.02 -0.22,-0.07 -0.06,-0.05 -0.09,-0.12 -0.09,-0.2 v -2.93 c 0,-0.08 0.03,-0.15 0.09,-0.21 0.06,-0.05 0.14,-0.08 0.22,-0.08 h 1.12 c 0.3,0 0.56,0.05 0.77,0.16 0.22,0.11 0.38,0.26 0.5,0.45 0.12,0.2 0.17,0.42 0.17,0.68 0,0.26 -0.06,0.46 -0.17,0.65 -0.11,0.18 -0.28,0.33 -0.5,0.43 -0.22,0.1 -0.48,0.15 -0.78,0.15 h -0.79 z m 0,-1.23 h 0.79 c 0.26,0 0.47,-0.06 0.61,-0.19 0.15,-0.12 0.22,-0.29 0.22,-0.5 0,-0.23 -0.07,-0.41 -0.21,-0.54 -0.14,-0.13 -0.34,-0.2 -0.6,-0.2 h -0.81 v 1.44 z"
         id="path41" />
      <path
         d="m 412.34,298.92 c 0.05,0.03 0.09,0.07 0.13,0.12 l 1.15,1.79 1.14,-1.8 c 0.03,-0.05 0.08,-0.09 0.13,-0.12 0.05,-0.03 0.11,-0.04 0.16,-0.04 0.08,0 0.16,0.03 0.22,0.08 0.06,0.05 0.09,0.13 0.09,0.22 v 2.9 c 0,0.09 -0.03,0.16 -0.1,0.21 -0.07,0.05 -0.14,0.07 -0.22,0.07 -0.08,0 -0.16,-0.02 -0.22,-0.07 -0.06,-0.05 -0.09,-0.12 -0.09,-0.21 v -1.85 l -0.82,1.28 c -0.03,0.05 -0.07,0.09 -0.12,0.12 -0.05,0.03 -0.11,0.04 -0.16,0.04 -0.05,0 -0.12,-0.01 -0.17,-0.05 -0.06,-0.03 -0.1,-0.07 -0.13,-0.13 l -0.81,-1.26 v 1.84 c 0,0.09 -0.03,0.16 -0.1,0.21 -0.06,0.05 -0.14,0.07 -0.22,0.07 -0.08,0 -0.16,-0.02 -0.22,-0.07 -0.06,-0.05 -0.09,-0.12 -0.09,-0.21 v -2.9 c 0,-0.09 0.03,-0.17 0.09,-0.22 0.06,-0.06 0.14,-0.09 0.22,-0.09 0.05,0 0.1,0.01 0.15,0.04 z"
         id="path43" />
      <path
         d="m 422.31,301.91 c 0.06,0.06 0.08,0.13 0.08,0.2 0,0.07 -0.03,0.14 -0.08,0.19 -0.05,0.05 -0.13,0.08 -0.22,0.08 h -2.18 c -0.11,0 -0.19,-0.03 -0.26,-0.1 -0.07,-0.06 -0.1,-0.14 -0.1,-0.23 v -2.84 c 0,-0.09 0.03,-0.17 0.1,-0.23 0.07,-0.06 0.15,-0.09 0.26,-0.09 h 2.18 c 0.1,0 0.17,0.03 0.22,0.08 0.05,0.05 0.07,0.11 0.07,0.19 0,0.07 -0.03,0.13 -0.08,0.19 -0.05,0.06 -0.12,0.09 -0.21,0.09 h -1.91 v 0.96 H 422 c 0.09,0 0.16,0.03 0.21,0.08 0.05,0.05 0.08,0.12 0.08,0.19 0,0.07 -0.03,0.13 -0.07,0.19 -0.05,0.05 -0.12,0.08 -0.21,0.08 h -1.82 v 0.91 h 1.91 c 0.09,0 0.16,0.03 0.22,0.09 z"
         id="path45" />
      <path
         d="m 428.77,298.95 c 0.07,-0.05 0.15,-0.07 0.23,-0.07 0.08,0 0.16,0.02 0.22,0.07 0.06,0.04 0.09,0.11 0.09,0.2 v 2.9 c 0,0.1 -0.04,0.18 -0.11,0.24 -0.07,0.06 -0.16,0.09 -0.26,0.09 -0.06,0 -0.12,-0.01 -0.18,-0.04 -0.06,-0.03 -0.11,-0.07 -0.15,-0.12 l -1.68,-2.16 0.02,0.31 v 1.72 c 0,0.1 -0.03,0.17 -0.1,0.22 -0.06,0.05 -0.14,0.07 -0.23,0.07 -0.09,0 -0.17,-0.02 -0.23,-0.07 -0.06,-0.05 -0.1,-0.12 -0.1,-0.22 v -2.87 c 0,-0.11 0.03,-0.19 0.1,-0.25 0.07,-0.06 0.14,-0.09 0.24,-0.09 0.07,0 0.12,0.01 0.18,0.04 0.05,0.03 0.1,0.07 0.14,0.12 l 1.72,2.24 -0.02,-0.37 v -1.77 c 0,-0.08 0.03,-0.15 0.1,-0.2 z"
         id="path47" />
      <path
         d="m 436.19,298.96 c 0.06,0.06 0.09,0.12 0.09,0.2 0,0.08 -0.03,0.14 -0.09,0.19 -0.06,0.06 -0.14,0.09 -0.24,0.09 h -1.02 v 2.64 c 0,0.09 -0.03,0.16 -0.1,0.21 -0.07,0.05 -0.14,0.08 -0.22,0.08 -0.08,0 -0.16,-0.03 -0.22,-0.08 -0.06,-0.05 -0.1,-0.12 -0.1,-0.21 v -2.64 h -1.01 c -0.1,0 -0.17,-0.03 -0.23,-0.08 -0.05,-0.05 -0.08,-0.12 -0.08,-0.2 0,-0.08 0.03,-0.14 0.08,-0.2 0.05,-0.06 0.13,-0.09 0.23,-0.09 h 2.67 c 0.1,0 0.18,0.03 0.24,0.09 z"
         id="path49" />
    </g>
  </g>
</svg>
